<svg height="577pt" viewBox="-18 -24 577.33315 577" width="577pt" xmlns="http://www.w3.org/2000/svg"><path d="m105.65625 239.40625h54.914062c3.082032 0 5.996094-1.417969 7.890626-3.855469l56.011718-72.027343 2.996094 17.144531 19.667969-3.4375-6.890625-39.335938c-.949219-5.433593-6.117188-9.0625-11.554688-8.117187l-39.335937 6.886718 3.4375 19.671876 13.84375-2.425782-50.949219 65.527344h-55.023438c-3.144531 0-6.105468 1.480469-7.984374 3.992188l-89.863282 119.8125 15.972656 11.984374zm0 0"/><path d="m270.402344 489.019531c-3.339844 0-6.457032-1.667969-8.308594-4.441406l-111.828125-167.832031-79.554687 112.367187h29.953124c2.648438 0 5.1875 1.050781 7.058594 2.921875l29.746094 29.746094-14.121094 14.117188-26.816406-26.816407h-39.9375l-56.59375 79.875h386.402344l-39.9375-39.9375zm0 0"/><path d="m330.308594 194.65625v-115.003906h109.238281l-27.226563-34.59375c-2.890624-3.671875-2.847656-8.859375.101563-12.480469l26.714844-32.800781h-128.796875v191.703125l-76.609375 107.832031h96.578125c2.644531 0 5.1875 1.054688 7.058594 2.925781l41.082031 41.089844-14.113281 14.113281-38.164063-38.160156h-105.695313v-1.304688l-23.433593 32.996094 78.667969 118.078125h74.882812c2.652344 0 5.1875 1.050781 7.058594 2.925781l56.984375 56.980469h126.613281zm0 0"/></svg>