<svg height="479pt" viewBox="0 -40 479.11846 479" width="479pt" xmlns="http://www.w3.org/2000/svg"><path d="m64 110.378906c13.253906 0 24-10.746094 24-24 0-13.257812-10.746094-24-24-24s-24 10.742188-24 24c0 13.253906 10.746094 24 24 24zm0-32c4.417969 0 8 3.582032 8 8 0 4.417969-3.582031 8-8 8s-8-3.582031-8-8c0-4.417968 3.582031-8 8-8zm0 0"/><path d="m478.625 351.175781-76.617188-210.527343-49.207031-135.3125c-1.503906-4.15625-6.09375-6.304688-10.25-4.796876l-102.550781 37.328126v-15.488282c0-4.417968-3.582031-8-8-8h-224c-4.417969 0-8 3.582032-8 8v368c0 4.417969 3.582031 8 8 8h224c4.417969 0 8-3.582031 8-8v-320.617187l30.792969 84.617187 87.550781 240.558594c.722656 1.996094 2.210938 3.625 4.132812 4.527344 1.925782.898437 4.128907 1 6.125.273437l105.238282-38.34375c4.15625-1.503906 6.304687-6.09375 4.800781-10.25zm-254.625-.796875h-96v-16h96zm-208-200h96v32h-96zm208 120h-96v-16h96zm-96 48v-32h96v32zm96-80h-96v-208h96zm-112-208v104h-96v-104zm-96 168h96v184h-96zm112 184v-16h96v16zm256.238281-243.777344-90.207031 32.839844-5.464844-15.023437 90.210938-32.839844zm-43.773437-120.28125 32.800781 90.21875-90.210937 32.796876-32.796876-90.160157zm30.183594 363.609376-71.144532-195.464844 90.207032-32.800782 71.144531 195.433594zm0 0"/><path d="m291.960938 95.570312c3.914062 10.757813 14.886718 17.253907 26.203124 15.507813 11.316407-1.742187 19.828126-11.234375 20.324219-22.671875.5-11.441406-7.152343-21.640625-18.273437-24.359375-11.121094-2.722656-22.617188 2.792969-27.453125 13.171875-2.707031 5.765625-2.992188 12.371094-.800781 18.351562zm15.304687-11.59375c.890625-1.925781 2.515625-3.414062 4.511719-4.136718.878906-.316406 1.808594-.484375 2.742187-.484375 3.363281 0 6.363281 2.105469 7.511719 5.261719 1.515625 4.152343-.625 8.746093-4.777344 10.261718-4.15625 1.511719-8.75-.628906-10.261718-4.78125-.734376-1.992187-.636719-4.199218.273437-6.121094zm0 0"/></svg>