<svg height="512pt" viewBox="0 0 512 512" width="512pt" xmlns="http://www.w3.org/2000/svg"><path d="m436.8125 75.1875c-48.484375-48.484375-112.699219-75.1875-180.8125-75.1875s-132.328125 26.703125-180.8125 75.1875-75.1875 112.699219-75.1875 180.8125 26.703125 132.328125 75.1875 180.8125 112.699219 75.1875 180.8125 75.1875 132.328125-26.703125 180.8125-75.1875 75.1875-112.699219 75.1875-180.8125-26.703125-132.328125-75.1875-180.8125zm-180.8125 406.8125c-124.617188 0-226-101.382812-226-226s101.382812-226 226-226 226 101.382812 226 226-101.382812 226-226 226zm0 0"/><path d="m107.710938 129.488281c-30.121094 35.257813-46.710938 80.1875-46.710938 126.511719 0 32.4375 8.164062 64.585938 23.613281 92.960938l9.59375 17.625 146.792969-146.792969v-159.03125l-17.492188 2.945312c-44.894531 7.5625-86.019531 30.925781-115.796874 65.78125zm103.289062 77.875-108.679688 108.679688c-7.441406-19.046875-11.320312-39.472657-11.320312-60.042969 0-74.8125 49.496094-138.984375 120-158.792969zm0 0"/><path d="m404.289062 129.488281c-29.777343-34.855469-70.902343-58.21875-115.796874-65.78125l-17.492188-2.945312v159.03125l146.792969 146.792969 9.59375-17.625c15.449219-28.375 23.613281-60.523438 23.613281-92.960938 0-46.324219-16.589844-91.253906-46.710938-126.511719zm5.390626 186.554688-108.679688-108.679688v-110.15625c70.503906 19.808594 120 83.980469 120 158.792969 0 20.570312-3.878906 40.996094-11.320312 60.042969zm0 0"/><path d="m271 451.238281 17.492188-2.945312c36.6875-6.179688 70.730468-22.746094 98.449218-47.902344l11.65625-10.582031-127.597656-127.601563zm30-116.601562 53.59375 53.589843c-16.15625 12.085938-34.292969 21.066407-53.59375 26.542969zm0 0"/><path d="m125.058594 400.390625c27.71875 25.15625 61.761718 41.722656 98.449218 47.902344l17.492188 2.945312v-189.03125l-127.601562 127.601563zm85.941406-65.753906v80.132812c-19.300781-5.476562-37.4375-14.457031-53.59375-26.542969zm0 0"/></svg>