<svg height="512pt" viewBox="0 -26 512 512" width="512pt" xmlns="http://www.w3.org/2000/svg"><path d="m80.554688 305.347656c8.296874 3.09375 17.074218 5.9375 26.242187 8.535156-2.269531 9.054688-4.136719 17.898438-5.558594 26.457032-9.042969 54.371094.640625 92.777344 27.261719 108.148437 14.5 8.371094 31.128906 8.28125 47.253906 3.777344 5.339844 4.894531 12.449219 7.886719 20.246094 7.886719 16.542969 0 30-13.457032 30-30 0-1.433594-.105469-2.839844-.300781-4.222656 10.660156-7.941407 20.746093-16.769532 30.300781-26.019532 6.734375 6.519532 13.484375 12.578125 20.210938 18.113282 29.96875 24.65625 73.820312 49.792968 107.289062 30.464843 26.625-15.371093 36.308594-53.78125 27.265625-108.148437-1.425781-8.5625-3.292969-17.402344-5.558594-26.457032 9.167969-2.597656 17.941407-5.441406 26.242188-8.535156 6.648437-2.480468 12.90625-5.097656 18.78125-7.832031 4.789062 3.242187 10.5625 5.136719 16.773437 5.136719 16.539063 0 30-13.457032 30-30 0-2.429688-.300781-4.789063-.847656-7.054688 10.414062-11.773437 15.84375-24.558594 15.84375-37.945312 0-30.734375-28.605469-58.324219-80.554688-77.691406-8.296874-3.09375-17.074218-5.941407-26.242187-8.535157 2.269531-9.054687 4.136719-17.898437 5.558594-26.460937 9.042969-54.367188-.640625-92.773438-27.261719-108.148438-26.625-15.371094-64.726562-4.554687-107.289062 30.464844-6.730469 5.535156-13.476563 11.59375-20.210938 18.113281-8.25-7.984375-15.582031-14.402343-22.625-20.066406 1.566406-17.664063-12.394531-32.675781-29.875-32.675781-5.800781 0-11.21875 1.660156-15.8125 4.519531-22.878906-9.355469-43.125-9.628906-59.1875-.355469-26.625 15.371094-36.308594 53.777344-27.261719 108.148438 1.421875 8.5625 3.289063 17.402344 5.554688 26.457031-9.167969 2.597656-17.941407 5.441406-26.238281 8.535156-51.949219 19.371094-80.554688 46.960938-80.554688 77.695313s28.605469 58.328125 80.554688 77.695312zm62.945312 117.160156c-14.578125-8.414062-19.3125-37.292968-12.671875-77.242187 1.304687-7.839844 3.019531-15.949219 5.101563-24.265625 19.210937 4.007812 39.691406 7.027344 61 8.984375 12.363281 17.476563 25.226562 33.691406 38.304687 48.292969-8.90625 8.613281-18.296875 16.816406-28.050781 24.046875-3.457032-1.394531-7.230469-2.167969-11.183594-2.167969-14.359375 0-26.386719 10.140625-29.316406 23.632812-7.59375 1.980469-16.328125 2.679688-23.183594-1.28125zm11.824219-229.867187c-4.066407-9.96875-7.71875-19.8125-10.9375-29.46875 9.96875-2.023437 20.316406-3.769531 30.96875-5.222656-6.925781 11.203125-13.441407 22.4375-20.03125 34.691406zm58.203125-38.558594c13.867187-.941406 28.066406-1.429687 42.472656-1.429687s28.605469.488281 42.472656 1.429687c15.363282 22.867188 29.863282 47.828125 42.476563 73.570313-12.125 24.742187-26.492188 49.777344-42.476563 73.574218-27.605468 1.871094-56.449218 1.933594-84.945312 0-15.363282-22.871093-29.863282-47.828124-42.476563-73.574218 12.121094-24.738282 26.488281-49.777344 42.476563-73.570313zm42.472656-55.292969c6.738281 7.605469 13.425781 15.679688 20.015625 24.167969-6.625-.199219-13.300781-.304687-20.015625-.304687s-13.390625.105468-20.015625.304687c6.589844-8.488281 13.277344-16.5625 20.015625-24.167969zm80.644531 59.160157c10.652344 1.453125 21 3.199219 30.96875 5.222656-3.21875 9.65625-6.871093 19.5-10.9375 29.46875-6.238281-11.597656-12.710937-22.851563-20.03125-34.691406zm20.03125 104.714843c4.066407 9.96875 7.71875 19.816407 10.9375 29.46875-9.96875 2.027344-20.316406 3.773438-30.96875 5.226563 6.964844-11.265625 13.476563-22.507813 20.03125-34.695313zm-100.675781 93.851563c-6.738281-7.601563-13.425781-15.675781-20.015625-24.167969 13.152344.394532 26.132813.417969 40.03125 0-6.589844 8.492188-13.277344 16.566406-20.015625 24.167969zm-80.644531-59.15625c-10.652344-1.453125-21-3.199219-30.96875-5.226563 3.21875-9.652343 6.871093-19.5 10.9375-29.46875 6.273437 11.664063 12.753906 22.925782 20.03125 34.695313zm205.816406 47.90625c6.644531 39.949219 1.90625 68.828125-12.671875 77.242187-14.578125 8.417969-41.953125-1.917968-73.230469-27.648437-6.148437-5.058594-12.328125-10.609375-18.503906-16.582031 13.078125-14.601563 25.941406-30.816406 38.304687-48.292969 21.308594-1.957031 41.789063-4.976563 61-8.984375 2.082032 8.316406 3.796876 16.425781 5.101563 24.265625zm39.792969-167.195313c38.21875 14.25 61.035156 32.785157 61.035156 49.582032 0 5.296875-2.269531 10.761718-6.574219 16.214844-2.675781-.785157-5.5-1.214844-8.425781-1.214844-15.835938 0-28.839844 12.339844-29.917969 27.90625-5.011719 2.308594-10.386719 4.542968-16.117187 6.679687-7.613282 2.835938-15.671875 5.449219-24.105469 7.839844-6.113281-18.660156-13.734375-37.945313-22.707031-57.425781 8.972656-19.480469 16.59375-38.765625 22.707031-57.421875 8.433594 2.386719 16.492187 5 24.105469 7.839843zm-52.464844-145.273437c14.578125 8.417969 19.3125 37.292969 12.671875 77.246094-1.304687 7.839843-3.019531 15.949219-5.101563 24.261719-19.210937-4.003907-39.691406-7.023438-61-8.984376-12.363281-17.476562-25.226562-33.691406-38.304687-48.289062 6.175781-5.976562 12.355469-11.523438 18.503906-16.585938 17.980469-14.789062 53.488281-39.046874 73.230469-27.648437zm-237.671875 77.246094c-6.644531-39.953125-1.90625-68.828125 12.671875-77.246094 8.71875-5.035156 20.585938-2.621094 30.027344.898437.550781 16.058594 13.78125 28.957032 29.972656 28.957032 4.480469 0 8.726562-.992188 12.546875-2.761719.230469.1875.457031.367187.683594.554687 6.152343 5.0625 12.328125 10.609376 18.503906 16.585938-13.078125 14.597656-25.941406 30.8125-38.304687 48.289062-21.308594 1.960938-41.789063 4.980469-61 8.984376-2.082032-8.3125-3.796876-16.421876-5.101563-24.261719zm-39.792969 68.027343c7.613282-2.839843 15.671875-5.453124 24.105469-7.839843 6.113281 18.65625 13.734375 37.941406 22.707031 57.421875-8.972656 19.480468-16.59375 38.765625-22.707031 57.421875-8.433594-2.386719-16.492187-5-24.105469-7.835938-38.21875-14.25-61.035156-32.785156-61.035156-49.585937 0-16.796875 22.816406-35.332032 61.035156-49.582032zm0 0"/><path d="m256 272.652344c24.8125 0 45-20.1875 45-45s-20.1875-45-45-45-45 20.1875-45 45 20.1875 45 45 45zm0-60c8.269531 0 15 6.730468 15 15 0 8.273437-6.730469 15-15 15s-15-6.726563-15-15c0-8.269532 6.730469-15 15-15zm0 0"/></svg>